<mxfile host="app.diagrams.net" agent="Mozilla/5.0 (Windows NT 10.0; Win64; x64) AppleWebKit/537.36 (KHTML, like Gecko) Chrome/128.0.0.0 YaBrowser/24.10.0.0 Safari/537.36" version="24.8.3">
  <diagram name="Страница — 1" id="Yai3iB0MPKsoqNFd09pt">
    <mxGraphModel grid="1" page="1" gridSize="10" guides="1" tooltips="1" connect="1" arrows="1" fold="1" pageScale="1" pageWidth="827" pageHeight="1169" math="0" shadow="0">
      <root>
        <mxCell id="0" />
        <mxCell id="1" parent="0" />
        <mxCell id="LMaIvzoPrQfNwyaQX1gV-46" value="&lt;font style=&quot;font-size: 21px;&quot;&gt;Объект User&lt;/font&gt;" style="text;html=1;align=center;verticalAlign=middle;resizable=0;points=[];autosize=1;strokeColor=none;fillColor=none;" vertex="1" parent="1">
          <mxGeometry x="10" y="10" width="150" height="40" as="geometry" />
        </mxCell>
        <mxCell id="LMaIvzoPrQfNwyaQX1gV-47" value="" style="shape=table;startSize=0;container=1;collapsible=0;childLayout=tableLayout;fontSize=16;" vertex="1" parent="1">
          <mxGeometry x="20" y="40" width="790" height="420" as="geometry" />
        </mxCell>
        <mxCell id="LMaIvzoPrQfNwyaQX1gV-48" value="" style="shape=tableRow;horizontal=0;startSize=0;swimlaneHead=0;swimlaneBody=0;strokeColor=inherit;top=0;left=0;bottom=0;right=0;collapsible=0;dropTarget=0;fillColor=none;points=[[0,0.5],[1,0.5]];portConstraint=eastwest;fontSize=16;" vertex="1" parent="LMaIvzoPrQfNwyaQX1gV-47">
          <mxGeometry width="790" height="61" as="geometry" />
        </mxCell>
        <mxCell id="LMaIvzoPrQfNwyaQX1gV-49" value="Родительская сущность" style="shape=partialRectangle;html=1;whiteSpace=wrap;connectable=0;strokeColor=inherit;overflow=hidden;fillColor=none;top=0;left=0;bottom=0;right=0;pointerEvents=1;fontSize=16;" vertex="1" parent="LMaIvzoPrQfNwyaQX1gV-48">
          <mxGeometry width="264" height="61" as="geometry">
            <mxRectangle width="264" height="61" as="alternateBounds" />
          </mxGeometry>
        </mxCell>
        <mxCell id="LMaIvzoPrQfNwyaQX1gV-50" value="Атрибут" style="shape=partialRectangle;html=1;whiteSpace=wrap;connectable=0;strokeColor=inherit;overflow=hidden;fillColor=none;top=0;left=0;bottom=0;right=0;pointerEvents=1;fontSize=16;" vertex="1" parent="LMaIvzoPrQfNwyaQX1gV-48">
          <mxGeometry x="264" width="262" height="61" as="geometry">
            <mxRectangle width="262" height="61" as="alternateBounds" />
          </mxGeometry>
        </mxCell>
        <mxCell id="LMaIvzoPrQfNwyaQX1gV-51" value="Описание" style="shape=partialRectangle;html=1;whiteSpace=wrap;connectable=0;strokeColor=inherit;overflow=hidden;fillColor=none;top=0;left=0;bottom=0;right=0;pointerEvents=1;fontSize=16;" vertex="1" parent="LMaIvzoPrQfNwyaQX1gV-48">
          <mxGeometry x="526" width="264" height="61" as="geometry">
            <mxRectangle width="264" height="61" as="alternateBounds" />
          </mxGeometry>
        </mxCell>
        <mxCell id="LMaIvzoPrQfNwyaQX1gV-52" value="" style="shape=tableRow;horizontal=0;startSize=0;swimlaneHead=0;swimlaneBody=0;strokeColor=inherit;top=0;left=0;bottom=0;right=0;collapsible=0;dropTarget=0;fillColor=none;points=[[0,0.5],[1,0.5]];portConstraint=eastwest;fontSize=16;" vertex="1" parent="LMaIvzoPrQfNwyaQX1gV-47">
          <mxGeometry y="61" width="790" height="59" as="geometry" />
        </mxCell>
        <mxCell id="LMaIvzoPrQfNwyaQX1gV-53" value="User" style="shape=partialRectangle;html=1;whiteSpace=wrap;connectable=0;strokeColor=inherit;overflow=hidden;fillColor=none;top=0;left=0;bottom=0;right=0;pointerEvents=1;fontSize=16;" vertex="1" parent="LMaIvzoPrQfNwyaQX1gV-52">
          <mxGeometry width="264" height="59" as="geometry">
            <mxRectangle width="264" height="59" as="alternateBounds" />
          </mxGeometry>
        </mxCell>
        <mxCell id="LMaIvzoPrQfNwyaQX1gV-54" value="---------" style="shape=partialRectangle;html=1;whiteSpace=wrap;connectable=0;strokeColor=inherit;overflow=hidden;fillColor=none;top=0;left=0;bottom=0;right=0;pointerEvents=1;fontSize=16;" vertex="1" parent="LMaIvzoPrQfNwyaQX1gV-52">
          <mxGeometry x="264" width="262" height="59" as="geometry">
            <mxRectangle width="262" height="59" as="alternateBounds" />
          </mxGeometry>
        </mxCell>
        <mxCell id="LMaIvzoPrQfNwyaQX1gV-55" value="&lt;span style=&quot;text-wrap: nowrap;&quot;&gt;&lt;font style=&quot;font-size: 16px;&quot;&gt;Объект пользователь&lt;/font&gt;&lt;/span&gt;" style="shape=partialRectangle;html=1;whiteSpace=wrap;connectable=0;strokeColor=inherit;overflow=hidden;fillColor=none;top=0;left=0;bottom=0;right=0;pointerEvents=1;fontSize=16;" vertex="1" parent="LMaIvzoPrQfNwyaQX1gV-52">
          <mxGeometry x="526" width="264" height="59" as="geometry">
            <mxRectangle width="264" height="59" as="alternateBounds" />
          </mxGeometry>
        </mxCell>
        <mxCell id="LMaIvzoPrQfNwyaQX1gV-60" value="" style="shape=tableRow;horizontal=0;startSize=0;swimlaneHead=0;swimlaneBody=0;strokeColor=inherit;top=0;left=0;bottom=0;right=0;collapsible=0;dropTarget=0;fillColor=none;points=[[0,0.5],[1,0.5]];portConstraint=eastwest;fontSize=16;" vertex="1" parent="LMaIvzoPrQfNwyaQX1gV-47">
          <mxGeometry y="120" width="790" height="60" as="geometry" />
        </mxCell>
        <mxCell id="LMaIvzoPrQfNwyaQX1gV-61" value="" style="shape=partialRectangle;html=1;whiteSpace=wrap;connectable=0;strokeColor=inherit;overflow=hidden;fillColor=none;top=0;left=0;bottom=0;right=0;pointerEvents=1;fontSize=16;" vertex="1" parent="LMaIvzoPrQfNwyaQX1gV-60">
          <mxGeometry width="264" height="60" as="geometry">
            <mxRectangle width="264" height="60" as="alternateBounds" />
          </mxGeometry>
        </mxCell>
        <mxCell id="LMaIvzoPrQfNwyaQX1gV-62" value="UserName" style="shape=partialRectangle;html=1;whiteSpace=wrap;connectable=0;strokeColor=inherit;overflow=hidden;fillColor=none;top=0;left=0;bottom=0;right=0;pointerEvents=1;fontSize=16;" vertex="1" parent="LMaIvzoPrQfNwyaQX1gV-60">
          <mxGeometry x="264" width="262" height="60" as="geometry">
            <mxRectangle width="262" height="60" as="alternateBounds" />
          </mxGeometry>
        </mxCell>
        <mxCell id="LMaIvzoPrQfNwyaQX1gV-63" value="Ник" style="shape=partialRectangle;html=1;whiteSpace=wrap;connectable=0;strokeColor=inherit;overflow=hidden;fillColor=none;top=0;left=0;bottom=0;right=0;pointerEvents=1;fontSize=16;" vertex="1" parent="LMaIvzoPrQfNwyaQX1gV-60">
          <mxGeometry x="526" width="264" height="60" as="geometry">
            <mxRectangle width="264" height="60" as="alternateBounds" />
          </mxGeometry>
        </mxCell>
        <mxCell id="LMaIvzoPrQfNwyaQX1gV-64" value="" style="shape=tableRow;horizontal=0;startSize=0;swimlaneHead=0;swimlaneBody=0;strokeColor=inherit;top=0;left=0;bottom=0;right=0;collapsible=0;dropTarget=0;fillColor=none;points=[[0,0.5],[1,0.5]];portConstraint=eastwest;fontSize=16;" vertex="1" parent="LMaIvzoPrQfNwyaQX1gV-47">
          <mxGeometry y="180" width="790" height="60" as="geometry" />
        </mxCell>
        <mxCell id="LMaIvzoPrQfNwyaQX1gV-65" value="" style="shape=partialRectangle;html=1;whiteSpace=wrap;connectable=0;strokeColor=inherit;overflow=hidden;fillColor=none;top=0;left=0;bottom=0;right=0;pointerEvents=1;fontSize=16;" vertex="1" parent="LMaIvzoPrQfNwyaQX1gV-64">
          <mxGeometry width="264" height="60" as="geometry">
            <mxRectangle width="264" height="60" as="alternateBounds" />
          </mxGeometry>
        </mxCell>
        <mxCell id="LMaIvzoPrQfNwyaQX1gV-66" value="Gender" style="shape=partialRectangle;html=1;whiteSpace=wrap;connectable=0;strokeColor=inherit;overflow=hidden;fillColor=none;top=0;left=0;bottom=0;right=0;pointerEvents=1;fontSize=16;" vertex="1" parent="LMaIvzoPrQfNwyaQX1gV-64">
          <mxGeometry x="264" width="262" height="60" as="geometry">
            <mxRectangle width="262" height="60" as="alternateBounds" />
          </mxGeometry>
        </mxCell>
        <mxCell id="LMaIvzoPrQfNwyaQX1gV-67" value="Пол" style="shape=partialRectangle;html=1;whiteSpace=wrap;connectable=0;strokeColor=inherit;overflow=hidden;fillColor=none;top=0;left=0;bottom=0;right=0;pointerEvents=1;fontSize=16;" vertex="1" parent="LMaIvzoPrQfNwyaQX1gV-64">
          <mxGeometry x="526" width="264" height="60" as="geometry">
            <mxRectangle width="264" height="60" as="alternateBounds" />
          </mxGeometry>
        </mxCell>
        <mxCell id="LMaIvzoPrQfNwyaQX1gV-68" value="" style="shape=tableRow;horizontal=0;startSize=0;swimlaneHead=0;swimlaneBody=0;strokeColor=inherit;top=0;left=0;bottom=0;right=0;collapsible=0;dropTarget=0;fillColor=none;points=[[0,0.5],[1,0.5]];portConstraint=eastwest;fontSize=16;" vertex="1" parent="LMaIvzoPrQfNwyaQX1gV-47">
          <mxGeometry y="240" width="790" height="60" as="geometry" />
        </mxCell>
        <mxCell id="LMaIvzoPrQfNwyaQX1gV-69" value="" style="shape=partialRectangle;html=1;whiteSpace=wrap;connectable=0;strokeColor=inherit;overflow=hidden;fillColor=none;top=0;left=0;bottom=0;right=0;pointerEvents=1;fontSize=16;" vertex="1" parent="LMaIvzoPrQfNwyaQX1gV-68">
          <mxGeometry width="264" height="60" as="geometry">
            <mxRectangle width="264" height="60" as="alternateBounds" />
          </mxGeometry>
        </mxCell>
        <mxCell id="LMaIvzoPrQfNwyaQX1gV-70" value="Age" style="shape=partialRectangle;html=1;whiteSpace=wrap;connectable=0;strokeColor=inherit;overflow=hidden;fillColor=none;top=0;left=0;bottom=0;right=0;pointerEvents=1;fontSize=16;" vertex="1" parent="LMaIvzoPrQfNwyaQX1gV-68">
          <mxGeometry x="264" width="262" height="60" as="geometry">
            <mxRectangle width="262" height="60" as="alternateBounds" />
          </mxGeometry>
        </mxCell>
        <mxCell id="LMaIvzoPrQfNwyaQX1gV-71" value="Возраст" style="shape=partialRectangle;html=1;whiteSpace=wrap;connectable=0;strokeColor=inherit;overflow=hidden;fillColor=none;top=0;left=0;bottom=0;right=0;pointerEvents=1;fontSize=16;" vertex="1" parent="LMaIvzoPrQfNwyaQX1gV-68">
          <mxGeometry x="526" width="264" height="60" as="geometry">
            <mxRectangle width="264" height="60" as="alternateBounds" />
          </mxGeometry>
        </mxCell>
        <mxCell id="LMaIvzoPrQfNwyaQX1gV-98" value="" style="shape=tableRow;horizontal=0;startSize=0;swimlaneHead=0;swimlaneBody=0;strokeColor=inherit;top=0;left=0;bottom=0;right=0;collapsible=0;dropTarget=0;fillColor=none;points=[[0,0.5],[1,0.5]];portConstraint=eastwest;fontSize=16;" vertex="1" parent="LMaIvzoPrQfNwyaQX1gV-47">
          <mxGeometry y="300" width="790" height="60" as="geometry" />
        </mxCell>
        <mxCell id="LMaIvzoPrQfNwyaQX1gV-99" value="" style="shape=partialRectangle;html=1;whiteSpace=wrap;connectable=0;strokeColor=inherit;overflow=hidden;fillColor=none;top=0;left=0;bottom=0;right=0;pointerEvents=1;fontSize=16;" vertex="1" parent="LMaIvzoPrQfNwyaQX1gV-98">
          <mxGeometry width="264" height="60" as="geometry">
            <mxRectangle width="264" height="60" as="alternateBounds" />
          </mxGeometry>
        </mxCell>
        <mxCell id="LMaIvzoPrQfNwyaQX1gV-100" value="PhoneNumber" style="shape=partialRectangle;html=1;whiteSpace=wrap;connectable=0;strokeColor=inherit;overflow=hidden;fillColor=none;top=0;left=0;bottom=0;right=0;pointerEvents=1;fontSize=16;" vertex="1" parent="LMaIvzoPrQfNwyaQX1gV-98">
          <mxGeometry x="264" width="262" height="60" as="geometry">
            <mxRectangle width="262" height="60" as="alternateBounds" />
          </mxGeometry>
        </mxCell>
        <mxCell id="LMaIvzoPrQfNwyaQX1gV-101" value="Телефон" style="shape=partialRectangle;html=1;whiteSpace=wrap;connectable=0;strokeColor=inherit;overflow=hidden;fillColor=none;top=0;left=0;bottom=0;right=0;pointerEvents=1;fontSize=16;" vertex="1" parent="LMaIvzoPrQfNwyaQX1gV-98">
          <mxGeometry x="526" width="264" height="60" as="geometry">
            <mxRectangle width="264" height="60" as="alternateBounds" />
          </mxGeometry>
        </mxCell>
        <mxCell id="LMaIvzoPrQfNwyaQX1gV-56" value="" style="shape=tableRow;horizontal=0;startSize=0;swimlaneHead=0;swimlaneBody=0;strokeColor=inherit;top=0;left=0;bottom=0;right=0;collapsible=0;dropTarget=0;fillColor=none;points=[[0,0.5],[1,0.5]];portConstraint=eastwest;fontSize=16;" vertex="1" parent="LMaIvzoPrQfNwyaQX1gV-47">
          <mxGeometry y="360" width="790" height="60" as="geometry" />
        </mxCell>
        <mxCell id="LMaIvzoPrQfNwyaQX1gV-57" value="" style="shape=partialRectangle;html=1;whiteSpace=wrap;connectable=0;strokeColor=inherit;overflow=hidden;fillColor=none;top=0;left=0;bottom=0;right=0;pointerEvents=1;fontSize=16;" vertex="1" parent="LMaIvzoPrQfNwyaQX1gV-56">
          <mxGeometry width="264" height="60" as="geometry">
            <mxRectangle width="264" height="60" as="alternateBounds" />
          </mxGeometry>
        </mxCell>
        <mxCell id="LMaIvzoPrQfNwyaQX1gV-58" value="&amp;nbsp;email" style="shape=partialRectangle;html=1;whiteSpace=wrap;connectable=0;strokeColor=inherit;overflow=hidden;fillColor=none;top=0;left=0;bottom=0;right=0;pointerEvents=1;fontSize=16;" vertex="1" parent="LMaIvzoPrQfNwyaQX1gV-56">
          <mxGeometry x="264" width="262" height="60" as="geometry">
            <mxRectangle width="262" height="60" as="alternateBounds" />
          </mxGeometry>
        </mxCell>
        <mxCell id="LMaIvzoPrQfNwyaQX1gV-59" value="Почта" style="shape=partialRectangle;html=1;whiteSpace=wrap;connectable=0;strokeColor=inherit;overflow=hidden;fillColor=none;top=0;left=0;bottom=0;right=0;pointerEvents=1;fontSize=16;" vertex="1" parent="LMaIvzoPrQfNwyaQX1gV-56">
          <mxGeometry x="526" width="264" height="60" as="geometry">
            <mxRectangle width="264" height="60" as="alternateBounds" />
          </mxGeometry>
        </mxCell>
        <mxCell id="LMaIvzoPrQfNwyaQX1gV-143" value="&lt;font style=&quot;font-size: 21px;&quot;&gt;Объект Artist&lt;/font&gt;" style="text;html=1;align=center;verticalAlign=middle;resizable=0;points=[];autosize=1;strokeColor=none;fillColor=none;" vertex="1" parent="1">
          <mxGeometry x="19" y="510" width="150" height="40" as="geometry" />
        </mxCell>
        <mxCell id="LMaIvzoPrQfNwyaQX1gV-154" value="" style="shape=partialRectangle;html=1;whiteSpace=wrap;connectable=0;strokeColor=inherit;overflow=hidden;fillColor=none;top=0;left=0;bottom=0;right=0;pointerEvents=1;fontSize=16;" vertex="1" parent="1">
          <mxGeometry x="30" y="1800" width="264" height="60" as="geometry">
            <mxRectangle width="264" height="60" as="alternateBounds" />
          </mxGeometry>
        </mxCell>
        <mxCell id="LMaIvzoPrQfNwyaQX1gV-157" value="" style="shape=partialRectangle;html=1;whiteSpace=wrap;connectable=0;strokeColor=inherit;overflow=hidden;fillColor=none;top=0;left=0;bottom=0;right=0;pointerEvents=1;fontSize=16;" vertex="1" parent="1">
          <mxGeometry x="30" y="1860" width="264" height="60" as="geometry">
            <mxRectangle width="264" height="60" as="alternateBounds" />
          </mxGeometry>
        </mxCell>
        <mxCell id="LMaIvzoPrQfNwyaQX1gV-160" value="" style="shape=partialRectangle;html=1;whiteSpace=wrap;connectable=0;strokeColor=inherit;overflow=hidden;fillColor=none;top=0;left=0;bottom=0;right=0;pointerEvents=1;fontSize=16;" vertex="1" parent="1">
          <mxGeometry x="30" y="1920" width="264" height="60" as="geometry">
            <mxRectangle width="264" height="60" as="alternateBounds" />
          </mxGeometry>
        </mxCell>
        <mxCell id="LMaIvzoPrQfNwyaQX1gV-192" value="" style="shape=table;startSize=0;container=1;collapsible=0;childLayout=tableLayout;fontSize=16;" vertex="1" parent="1">
          <mxGeometry x="29" y="550" width="780" height="300" as="geometry" />
        </mxCell>
        <mxCell id="LMaIvzoPrQfNwyaQX1gV-193" value="" style="shape=tableRow;horizontal=0;startSize=0;swimlaneHead=0;swimlaneBody=0;strokeColor=inherit;top=0;left=0;bottom=0;right=0;collapsible=0;dropTarget=0;fillColor=none;points=[[0,0.5],[1,0.5]];portConstraint=eastwest;fontSize=16;" vertex="1" parent="LMaIvzoPrQfNwyaQX1gV-192">
          <mxGeometry width="780" height="60" as="geometry" />
        </mxCell>
        <mxCell id="LMaIvzoPrQfNwyaQX1gV-194" value="Родительская сущность" style="shape=partialRectangle;html=1;whiteSpace=wrap;connectable=0;strokeColor=inherit;overflow=hidden;fillColor=none;top=0;left=0;bottom=0;right=0;pointerEvents=1;fontSize=16;" vertex="1" parent="LMaIvzoPrQfNwyaQX1gV-193">
          <mxGeometry width="260" height="60" as="geometry">
            <mxRectangle width="260" height="60" as="alternateBounds" />
          </mxGeometry>
        </mxCell>
        <mxCell id="LMaIvzoPrQfNwyaQX1gV-195" value="Атрибут" style="shape=partialRectangle;html=1;whiteSpace=wrap;connectable=0;strokeColor=inherit;overflow=hidden;fillColor=none;top=0;left=0;bottom=0;right=0;pointerEvents=1;fontSize=16;" vertex="1" parent="LMaIvzoPrQfNwyaQX1gV-193">
          <mxGeometry x="260" width="260" height="60" as="geometry">
            <mxRectangle width="260" height="60" as="alternateBounds" />
          </mxGeometry>
        </mxCell>
        <mxCell id="LMaIvzoPrQfNwyaQX1gV-196" value="Описание" style="shape=partialRectangle;html=1;whiteSpace=wrap;connectable=0;strokeColor=inherit;overflow=hidden;fillColor=none;top=0;left=0;bottom=0;right=0;pointerEvents=1;fontSize=16;" vertex="1" parent="LMaIvzoPrQfNwyaQX1gV-193">
          <mxGeometry x="520" width="260" height="60" as="geometry">
            <mxRectangle width="260" height="60" as="alternateBounds" />
          </mxGeometry>
        </mxCell>
        <mxCell id="LMaIvzoPrQfNwyaQX1gV-197" value="" style="shape=tableRow;horizontal=0;startSize=0;swimlaneHead=0;swimlaneBody=0;strokeColor=inherit;top=0;left=0;bottom=0;right=0;collapsible=0;dropTarget=0;fillColor=none;points=[[0,0.5],[1,0.5]];portConstraint=eastwest;fontSize=16;" vertex="1" parent="LMaIvzoPrQfNwyaQX1gV-192">
          <mxGeometry y="60" width="780" height="60" as="geometry" />
        </mxCell>
        <mxCell id="LMaIvzoPrQfNwyaQX1gV-198" value="Artist" style="shape=partialRectangle;html=1;whiteSpace=wrap;connectable=0;strokeColor=inherit;overflow=hidden;fillColor=none;top=0;left=0;bottom=0;right=0;pointerEvents=1;fontSize=16;" vertex="1" parent="LMaIvzoPrQfNwyaQX1gV-197">
          <mxGeometry width="260" height="60" as="geometry">
            <mxRectangle width="260" height="60" as="alternateBounds" />
          </mxGeometry>
        </mxCell>
        <mxCell id="LMaIvzoPrQfNwyaQX1gV-199" value="---------" style="shape=partialRectangle;html=1;whiteSpace=wrap;connectable=0;strokeColor=inherit;overflow=hidden;fillColor=none;top=0;left=0;bottom=0;right=0;pointerEvents=1;fontSize=16;" vertex="1" parent="LMaIvzoPrQfNwyaQX1gV-197">
          <mxGeometry x="260" width="260" height="60" as="geometry">
            <mxRectangle width="260" height="60" as="alternateBounds" />
          </mxGeometry>
        </mxCell>
        <mxCell id="LMaIvzoPrQfNwyaQX1gV-200" value="Исполнитель" style="shape=partialRectangle;html=1;whiteSpace=wrap;connectable=0;strokeColor=inherit;overflow=hidden;fillColor=none;top=0;left=0;bottom=0;right=0;pointerEvents=1;fontSize=16;" vertex="1" parent="LMaIvzoPrQfNwyaQX1gV-197">
          <mxGeometry x="520" width="260" height="60" as="geometry">
            <mxRectangle width="260" height="60" as="alternateBounds" />
          </mxGeometry>
        </mxCell>
        <mxCell id="LMaIvzoPrQfNwyaQX1gV-218" value="" style="shape=tableRow;horizontal=0;startSize=0;swimlaneHead=0;swimlaneBody=0;strokeColor=inherit;top=0;left=0;bottom=0;right=0;collapsible=0;dropTarget=0;fillColor=none;points=[[0,0.5],[1,0.5]];portConstraint=eastwest;fontSize=16;" vertex="1" parent="LMaIvzoPrQfNwyaQX1gV-192">
          <mxGeometry y="120" width="780" height="60" as="geometry" />
        </mxCell>
        <mxCell id="LMaIvzoPrQfNwyaQX1gV-219" value="" style="shape=partialRectangle;html=1;whiteSpace=wrap;connectable=0;strokeColor=inherit;overflow=hidden;fillColor=none;top=0;left=0;bottom=0;right=0;pointerEvents=1;fontSize=16;" vertex="1" parent="LMaIvzoPrQfNwyaQX1gV-218">
          <mxGeometry width="260" height="60" as="geometry">
            <mxRectangle width="260" height="60" as="alternateBounds" />
          </mxGeometry>
        </mxCell>
        <mxCell id="LMaIvzoPrQfNwyaQX1gV-220" value="ArtistName" style="shape=partialRectangle;html=1;whiteSpace=wrap;connectable=0;strokeColor=inherit;overflow=hidden;fillColor=none;top=0;left=0;bottom=0;right=0;pointerEvents=1;fontSize=16;" vertex="1" parent="LMaIvzoPrQfNwyaQX1gV-218">
          <mxGeometry x="260" width="260" height="60" as="geometry">
            <mxRectangle width="260" height="60" as="alternateBounds" />
          </mxGeometry>
        </mxCell>
        <mxCell id="LMaIvzoPrQfNwyaQX1gV-221" value="Псевдоним исполнителя" style="shape=partialRectangle;html=1;whiteSpace=wrap;connectable=0;strokeColor=inherit;overflow=hidden;fillColor=none;top=0;left=0;bottom=0;right=0;pointerEvents=1;fontSize=16;" vertex="1" parent="LMaIvzoPrQfNwyaQX1gV-218">
          <mxGeometry x="520" width="260" height="60" as="geometry">
            <mxRectangle width="260" height="60" as="alternateBounds" />
          </mxGeometry>
        </mxCell>
        <mxCell id="LMaIvzoPrQfNwyaQX1gV-222" value="" style="shape=tableRow;horizontal=0;startSize=0;swimlaneHead=0;swimlaneBody=0;strokeColor=inherit;top=0;left=0;bottom=0;right=0;collapsible=0;dropTarget=0;fillColor=none;points=[[0,0.5],[1,0.5]];portConstraint=eastwest;fontSize=16;" vertex="1" parent="LMaIvzoPrQfNwyaQX1gV-192">
          <mxGeometry y="180" width="780" height="60" as="geometry" />
        </mxCell>
        <mxCell id="LMaIvzoPrQfNwyaQX1gV-223" value="" style="shape=partialRectangle;html=1;whiteSpace=wrap;connectable=0;strokeColor=inherit;overflow=hidden;fillColor=none;top=0;left=0;bottom=0;right=0;pointerEvents=1;fontSize=16;" vertex="1" parent="LMaIvzoPrQfNwyaQX1gV-222">
          <mxGeometry width="260" height="60" as="geometry">
            <mxRectangle width="260" height="60" as="alternateBounds" />
          </mxGeometry>
        </mxCell>
        <mxCell id="LMaIvzoPrQfNwyaQX1gV-224" value="Track" style="shape=partialRectangle;html=1;whiteSpace=wrap;connectable=0;strokeColor=inherit;overflow=hidden;fillColor=none;top=0;left=0;bottom=0;right=0;pointerEvents=1;fontSize=16;" vertex="1" parent="LMaIvzoPrQfNwyaQX1gV-222">
          <mxGeometry x="260" width="260" height="60" as="geometry">
            <mxRectangle width="260" height="60" as="alternateBounds" />
          </mxGeometry>
        </mxCell>
        <mxCell id="LMaIvzoPrQfNwyaQX1gV-225" value="Треки исполнителя" style="shape=partialRectangle;html=1;whiteSpace=wrap;connectable=0;strokeColor=inherit;overflow=hidden;fillColor=none;top=0;left=0;bottom=0;right=0;pointerEvents=1;fontSize=16;" vertex="1" parent="LMaIvzoPrQfNwyaQX1gV-222">
          <mxGeometry x="520" width="260" height="60" as="geometry">
            <mxRectangle width="260" height="60" as="alternateBounds" />
          </mxGeometry>
        </mxCell>
        <mxCell id="LMaIvzoPrQfNwyaQX1gV-201" value="" style="shape=tableRow;horizontal=0;startSize=0;swimlaneHead=0;swimlaneBody=0;strokeColor=inherit;top=0;left=0;bottom=0;right=0;collapsible=0;dropTarget=0;fillColor=none;points=[[0,0.5],[1,0.5]];portConstraint=eastwest;fontSize=16;" vertex="1" parent="LMaIvzoPrQfNwyaQX1gV-192">
          <mxGeometry y="240" width="780" height="60" as="geometry" />
        </mxCell>
        <mxCell id="LMaIvzoPrQfNwyaQX1gV-202" value="" style="shape=partialRectangle;html=1;whiteSpace=wrap;connectable=0;strokeColor=inherit;overflow=hidden;fillColor=none;top=0;left=0;bottom=0;right=0;pointerEvents=1;fontSize=16;" vertex="1" parent="LMaIvzoPrQfNwyaQX1gV-201">
          <mxGeometry width="260" height="60" as="geometry">
            <mxRectangle width="260" height="60" as="alternateBounds" />
          </mxGeometry>
        </mxCell>
        <mxCell id="LMaIvzoPrQfNwyaQX1gV-203" value="Album" style="shape=partialRectangle;html=1;whiteSpace=wrap;connectable=0;strokeColor=inherit;overflow=hidden;fillColor=none;top=0;left=0;bottom=0;right=0;pointerEvents=1;fontSize=16;" vertex="1" parent="LMaIvzoPrQfNwyaQX1gV-201">
          <mxGeometry x="260" width="260" height="60" as="geometry">
            <mxRectangle width="260" height="60" as="alternateBounds" />
          </mxGeometry>
        </mxCell>
        <mxCell id="LMaIvzoPrQfNwyaQX1gV-204" value="Альбомы исполнителя" style="shape=partialRectangle;html=1;whiteSpace=wrap;connectable=0;strokeColor=inherit;overflow=hidden;fillColor=none;top=0;left=0;bottom=0;right=0;pointerEvents=1;fontSize=16;" vertex="1" parent="LMaIvzoPrQfNwyaQX1gV-201">
          <mxGeometry x="520" width="260" height="60" as="geometry">
            <mxRectangle width="260" height="60" as="alternateBounds" />
          </mxGeometry>
        </mxCell>
        <mxCell id="LMaIvzoPrQfNwyaQX1gV-226" value="" style="shape=table;startSize=0;container=1;collapsible=0;childLayout=tableLayout;fontSize=16;" vertex="1" parent="1">
          <mxGeometry x="29" y="940" width="780" height="300" as="geometry" />
        </mxCell>
        <mxCell id="LMaIvzoPrQfNwyaQX1gV-227" value="" style="shape=tableRow;horizontal=0;startSize=0;swimlaneHead=0;swimlaneBody=0;strokeColor=inherit;top=0;left=0;bottom=0;right=0;collapsible=0;dropTarget=0;fillColor=none;points=[[0,0.5],[1,0.5]];portConstraint=eastwest;fontSize=16;" vertex="1" parent="LMaIvzoPrQfNwyaQX1gV-226">
          <mxGeometry width="780" height="60" as="geometry" />
        </mxCell>
        <mxCell id="LMaIvzoPrQfNwyaQX1gV-228" value="Родительская сущность" style="shape=partialRectangle;html=1;whiteSpace=wrap;connectable=0;strokeColor=inherit;overflow=hidden;fillColor=none;top=0;left=0;bottom=0;right=0;pointerEvents=1;fontSize=16;" vertex="1" parent="LMaIvzoPrQfNwyaQX1gV-227">
          <mxGeometry width="260" height="60" as="geometry">
            <mxRectangle width="260" height="60" as="alternateBounds" />
          </mxGeometry>
        </mxCell>
        <mxCell id="LMaIvzoPrQfNwyaQX1gV-229" value="Атрибут" style="shape=partialRectangle;html=1;whiteSpace=wrap;connectable=0;strokeColor=inherit;overflow=hidden;fillColor=none;top=0;left=0;bottom=0;right=0;pointerEvents=1;fontSize=16;" vertex="1" parent="LMaIvzoPrQfNwyaQX1gV-227">
          <mxGeometry x="260" width="260" height="60" as="geometry">
            <mxRectangle width="260" height="60" as="alternateBounds" />
          </mxGeometry>
        </mxCell>
        <mxCell id="LMaIvzoPrQfNwyaQX1gV-230" value="Описание" style="shape=partialRectangle;html=1;whiteSpace=wrap;connectable=0;strokeColor=inherit;overflow=hidden;fillColor=none;top=0;left=0;bottom=0;right=0;pointerEvents=1;fontSize=16;" vertex="1" parent="LMaIvzoPrQfNwyaQX1gV-227">
          <mxGeometry x="520" width="260" height="60" as="geometry">
            <mxRectangle width="260" height="60" as="alternateBounds" />
          </mxGeometry>
        </mxCell>
        <mxCell id="LMaIvzoPrQfNwyaQX1gV-231" value="" style="shape=tableRow;horizontal=0;startSize=0;swimlaneHead=0;swimlaneBody=0;strokeColor=inherit;top=0;left=0;bottom=0;right=0;collapsible=0;dropTarget=0;fillColor=none;points=[[0,0.5],[1,0.5]];portConstraint=eastwest;fontSize=16;" vertex="1" parent="LMaIvzoPrQfNwyaQX1gV-226">
          <mxGeometry y="60" width="780" height="60" as="geometry" />
        </mxCell>
        <mxCell id="LMaIvzoPrQfNwyaQX1gV-232" value="Album" style="shape=partialRectangle;html=1;whiteSpace=wrap;connectable=0;strokeColor=inherit;overflow=hidden;fillColor=none;top=0;left=0;bottom=0;right=0;pointerEvents=1;fontSize=16;" vertex="1" parent="LMaIvzoPrQfNwyaQX1gV-231">
          <mxGeometry width="260" height="60" as="geometry">
            <mxRectangle width="260" height="60" as="alternateBounds" />
          </mxGeometry>
        </mxCell>
        <mxCell id="LMaIvzoPrQfNwyaQX1gV-233" value="---------" style="shape=partialRectangle;html=1;whiteSpace=wrap;connectable=0;strokeColor=inherit;overflow=hidden;fillColor=none;top=0;left=0;bottom=0;right=0;pointerEvents=1;fontSize=16;" vertex="1" parent="LMaIvzoPrQfNwyaQX1gV-231">
          <mxGeometry x="260" width="260" height="60" as="geometry">
            <mxRectangle width="260" height="60" as="alternateBounds" />
          </mxGeometry>
        </mxCell>
        <mxCell id="LMaIvzoPrQfNwyaQX1gV-234" value="Альбом" style="shape=partialRectangle;html=1;whiteSpace=wrap;connectable=0;strokeColor=inherit;overflow=hidden;fillColor=none;top=0;left=0;bottom=0;right=0;pointerEvents=1;fontSize=16;" vertex="1" parent="LMaIvzoPrQfNwyaQX1gV-231">
          <mxGeometry x="520" width="260" height="60" as="geometry">
            <mxRectangle width="260" height="60" as="alternateBounds" />
          </mxGeometry>
        </mxCell>
        <mxCell id="LMaIvzoPrQfNwyaQX1gV-240" value="" style="shape=tableRow;horizontal=0;startSize=0;swimlaneHead=0;swimlaneBody=0;strokeColor=inherit;top=0;left=0;bottom=0;right=0;collapsible=0;dropTarget=0;fillColor=none;points=[[0,0.5],[1,0.5]];portConstraint=eastwest;fontSize=16;" vertex="1" parent="LMaIvzoPrQfNwyaQX1gV-226">
          <mxGeometry y="120" width="780" height="60" as="geometry" />
        </mxCell>
        <mxCell id="LMaIvzoPrQfNwyaQX1gV-241" value="" style="shape=partialRectangle;html=1;whiteSpace=wrap;connectable=0;strokeColor=inherit;overflow=hidden;fillColor=none;top=0;left=0;bottom=0;right=0;pointerEvents=1;fontSize=16;" vertex="1" parent="LMaIvzoPrQfNwyaQX1gV-240">
          <mxGeometry width="260" height="60" as="geometry">
            <mxRectangle width="260" height="60" as="alternateBounds" />
          </mxGeometry>
        </mxCell>
        <mxCell id="LMaIvzoPrQfNwyaQX1gV-242" value="AlbumName" style="shape=partialRectangle;html=1;whiteSpace=wrap;connectable=0;strokeColor=inherit;overflow=hidden;fillColor=none;top=0;left=0;bottom=0;right=0;pointerEvents=1;fontSize=16;" vertex="1" parent="LMaIvzoPrQfNwyaQX1gV-240">
          <mxGeometry x="260" width="260" height="60" as="geometry">
            <mxRectangle width="260" height="60" as="alternateBounds" />
          </mxGeometry>
        </mxCell>
        <mxCell id="LMaIvzoPrQfNwyaQX1gV-243" value="Название" style="shape=partialRectangle;html=1;whiteSpace=wrap;connectable=0;strokeColor=inherit;overflow=hidden;fillColor=none;top=0;left=0;bottom=0;right=0;pointerEvents=1;fontSize=16;" vertex="1" parent="LMaIvzoPrQfNwyaQX1gV-240">
          <mxGeometry x="520" width="260" height="60" as="geometry">
            <mxRectangle width="260" height="60" as="alternateBounds" />
          </mxGeometry>
        </mxCell>
        <mxCell id="LMaIvzoPrQfNwyaQX1gV-244" value="" style="shape=tableRow;horizontal=0;startSize=0;swimlaneHead=0;swimlaneBody=0;strokeColor=inherit;top=0;left=0;bottom=0;right=0;collapsible=0;dropTarget=0;fillColor=none;points=[[0,0.5],[1,0.5]];portConstraint=eastwest;fontSize=16;" vertex="1" parent="LMaIvzoPrQfNwyaQX1gV-226">
          <mxGeometry y="180" width="780" height="60" as="geometry" />
        </mxCell>
        <mxCell id="LMaIvzoPrQfNwyaQX1gV-245" value="" style="shape=partialRectangle;html=1;whiteSpace=wrap;connectable=0;strokeColor=inherit;overflow=hidden;fillColor=none;top=0;left=0;bottom=0;right=0;pointerEvents=1;fontSize=16;" vertex="1" parent="LMaIvzoPrQfNwyaQX1gV-244">
          <mxGeometry width="260" height="60" as="geometry">
            <mxRectangle width="260" height="60" as="alternateBounds" />
          </mxGeometry>
        </mxCell>
        <mxCell id="LMaIvzoPrQfNwyaQX1gV-246" value="Artist" style="shape=partialRectangle;html=1;whiteSpace=wrap;connectable=0;strokeColor=inherit;overflow=hidden;fillColor=none;top=0;left=0;bottom=0;right=0;pointerEvents=1;fontSize=16;" vertex="1" parent="LMaIvzoPrQfNwyaQX1gV-244">
          <mxGeometry x="260" width="260" height="60" as="geometry">
            <mxRectangle width="260" height="60" as="alternateBounds" />
          </mxGeometry>
        </mxCell>
        <mxCell id="LMaIvzoPrQfNwyaQX1gV-247" value="Исполнители, которым принадлежит альбом. Ссылка на объект Artist" style="shape=partialRectangle;html=1;whiteSpace=wrap;connectable=0;strokeColor=inherit;overflow=hidden;fillColor=none;top=0;left=0;bottom=0;right=0;pointerEvents=1;fontSize=16;" vertex="1" parent="LMaIvzoPrQfNwyaQX1gV-244">
          <mxGeometry x="520" width="260" height="60" as="geometry">
            <mxRectangle width="260" height="60" as="alternateBounds" />
          </mxGeometry>
        </mxCell>
        <mxCell id="LMaIvzoPrQfNwyaQX1gV-235" value="" style="shape=tableRow;horizontal=0;startSize=0;swimlaneHead=0;swimlaneBody=0;strokeColor=inherit;top=0;left=0;bottom=0;right=0;collapsible=0;dropTarget=0;fillColor=none;points=[[0,0.5],[1,0.5]];portConstraint=eastwest;fontSize=16;" vertex="1" parent="LMaIvzoPrQfNwyaQX1gV-226">
          <mxGeometry y="240" width="780" height="60" as="geometry" />
        </mxCell>
        <mxCell id="LMaIvzoPrQfNwyaQX1gV-236" value="" style="shape=partialRectangle;html=1;whiteSpace=wrap;connectable=0;strokeColor=inherit;overflow=hidden;fillColor=none;top=0;left=0;bottom=0;right=0;pointerEvents=1;fontSize=16;" vertex="1" parent="LMaIvzoPrQfNwyaQX1gV-235">
          <mxGeometry width="260" height="60" as="geometry">
            <mxRectangle width="260" height="60" as="alternateBounds" />
          </mxGeometry>
        </mxCell>
        <mxCell id="LMaIvzoPrQfNwyaQX1gV-237" value="Track" style="shape=partialRectangle;html=1;whiteSpace=wrap;connectable=0;strokeColor=inherit;overflow=hidden;fillColor=none;top=0;left=0;bottom=0;right=0;pointerEvents=1;fontSize=16;" vertex="1" parent="LMaIvzoPrQfNwyaQX1gV-235">
          <mxGeometry x="260" width="260" height="60" as="geometry">
            <mxRectangle width="260" height="60" as="alternateBounds" />
          </mxGeometry>
        </mxCell>
        <mxCell id="LMaIvzoPrQfNwyaQX1gV-238" value="Треки альбома" style="shape=partialRectangle;html=1;whiteSpace=wrap;connectable=0;strokeColor=inherit;overflow=hidden;fillColor=none;top=0;left=0;bottom=0;right=0;pointerEvents=1;fontSize=16;" vertex="1" parent="LMaIvzoPrQfNwyaQX1gV-235">
          <mxGeometry x="520" width="260" height="60" as="geometry">
            <mxRectangle width="260" height="60" as="alternateBounds" />
          </mxGeometry>
        </mxCell>
        <mxCell id="LMaIvzoPrQfNwyaQX1gV-239" value="&lt;font style=&quot;font-size: 21px;&quot;&gt;Объект Album&lt;/font&gt;" style="text;html=1;align=center;verticalAlign=middle;resizable=0;points=[];autosize=1;strokeColor=none;fillColor=none;" vertex="1" parent="1">
          <mxGeometry x="19" y="900" width="160" height="40" as="geometry" />
        </mxCell>
        <mxCell id="LMaIvzoPrQfNwyaQX1gV-261" value="" style="shape=table;startSize=0;container=1;collapsible=0;childLayout=tableLayout;fontSize=16;" vertex="1" parent="1">
          <mxGeometry x="35" y="1830" width="780" height="300" as="geometry" />
        </mxCell>
        <mxCell id="LMaIvzoPrQfNwyaQX1gV-262" value="" style="shape=tableRow;horizontal=0;startSize=0;swimlaneHead=0;swimlaneBody=0;strokeColor=inherit;top=0;left=0;bottom=0;right=0;collapsible=0;dropTarget=0;fillColor=none;points=[[0,0.5],[1,0.5]];portConstraint=eastwest;fontSize=16;" vertex="1" parent="LMaIvzoPrQfNwyaQX1gV-261">
          <mxGeometry width="780" height="60" as="geometry" />
        </mxCell>
        <mxCell id="LMaIvzoPrQfNwyaQX1gV-263" value="Родительская сущность" style="shape=partialRectangle;html=1;whiteSpace=wrap;connectable=0;strokeColor=inherit;overflow=hidden;fillColor=none;top=0;left=0;bottom=0;right=0;pointerEvents=1;fontSize=16;" vertex="1" parent="LMaIvzoPrQfNwyaQX1gV-262">
          <mxGeometry width="260" height="60" as="geometry">
            <mxRectangle width="260" height="60" as="alternateBounds" />
          </mxGeometry>
        </mxCell>
        <mxCell id="LMaIvzoPrQfNwyaQX1gV-264" value="Атрибут" style="shape=partialRectangle;html=1;whiteSpace=wrap;connectable=0;strokeColor=inherit;overflow=hidden;fillColor=none;top=0;left=0;bottom=0;right=0;pointerEvents=1;fontSize=16;" vertex="1" parent="LMaIvzoPrQfNwyaQX1gV-262">
          <mxGeometry x="260" width="260" height="60" as="geometry">
            <mxRectangle width="260" height="60" as="alternateBounds" />
          </mxGeometry>
        </mxCell>
        <mxCell id="LMaIvzoPrQfNwyaQX1gV-265" value="Описание" style="shape=partialRectangle;html=1;whiteSpace=wrap;connectable=0;strokeColor=inherit;overflow=hidden;fillColor=none;top=0;left=0;bottom=0;right=0;pointerEvents=1;fontSize=16;" vertex="1" parent="LMaIvzoPrQfNwyaQX1gV-262">
          <mxGeometry x="520" width="260" height="60" as="geometry">
            <mxRectangle width="260" height="60" as="alternateBounds" />
          </mxGeometry>
        </mxCell>
        <mxCell id="LMaIvzoPrQfNwyaQX1gV-266" value="" style="shape=tableRow;horizontal=0;startSize=0;swimlaneHead=0;swimlaneBody=0;strokeColor=inherit;top=0;left=0;bottom=0;right=0;collapsible=0;dropTarget=0;fillColor=none;points=[[0,0.5],[1,0.5]];portConstraint=eastwest;fontSize=16;" vertex="1" parent="LMaIvzoPrQfNwyaQX1gV-261">
          <mxGeometry y="60" width="780" height="60" as="geometry" />
        </mxCell>
        <mxCell id="LMaIvzoPrQfNwyaQX1gV-267" value="&lt;span style=&quot;text-wrap: nowrap;&quot;&gt;&lt;font style=&quot;font-size: 16px;&quot;&gt;Lyrics&lt;/font&gt;&lt;/span&gt;" style="shape=partialRectangle;html=1;whiteSpace=wrap;connectable=0;strokeColor=inherit;overflow=hidden;fillColor=none;top=0;left=0;bottom=0;right=0;pointerEvents=1;fontSize=16;" vertex="1" parent="LMaIvzoPrQfNwyaQX1gV-266">
          <mxGeometry width="260" height="60" as="geometry">
            <mxRectangle width="260" height="60" as="alternateBounds" />
          </mxGeometry>
        </mxCell>
        <mxCell id="LMaIvzoPrQfNwyaQX1gV-268" value="---------" style="shape=partialRectangle;html=1;whiteSpace=wrap;connectable=0;strokeColor=inherit;overflow=hidden;fillColor=none;top=0;left=0;bottom=0;right=0;pointerEvents=1;fontSize=16;" vertex="1" parent="LMaIvzoPrQfNwyaQX1gV-266">
          <mxGeometry x="260" width="260" height="60" as="geometry">
            <mxRectangle width="260" height="60" as="alternateBounds" />
          </mxGeometry>
        </mxCell>
        <mxCell id="LMaIvzoPrQfNwyaQX1gV-269" value="Текст песни" style="shape=partialRectangle;html=1;whiteSpace=wrap;connectable=0;strokeColor=inherit;overflow=hidden;fillColor=none;top=0;left=0;bottom=0;right=0;pointerEvents=1;fontSize=16;" vertex="1" parent="LMaIvzoPrQfNwyaQX1gV-266">
          <mxGeometry x="520" width="260" height="60" as="geometry">
            <mxRectangle width="260" height="60" as="alternateBounds" />
          </mxGeometry>
        </mxCell>
        <mxCell id="LMaIvzoPrQfNwyaQX1gV-275" value="" style="shape=tableRow;horizontal=0;startSize=0;swimlaneHead=0;swimlaneBody=0;strokeColor=inherit;top=0;left=0;bottom=0;right=0;collapsible=0;dropTarget=0;fillColor=none;points=[[0,0.5],[1,0.5]];portConstraint=eastwest;fontSize=16;" vertex="1" parent="LMaIvzoPrQfNwyaQX1gV-261">
          <mxGeometry y="120" width="780" height="60" as="geometry" />
        </mxCell>
        <mxCell id="LMaIvzoPrQfNwyaQX1gV-276" value="" style="shape=partialRectangle;html=1;whiteSpace=wrap;connectable=0;strokeColor=inherit;overflow=hidden;fillColor=none;top=0;left=0;bottom=0;right=0;pointerEvents=1;fontSize=16;" vertex="1" parent="LMaIvzoPrQfNwyaQX1gV-275">
          <mxGeometry width="260" height="60" as="geometry">
            <mxRectangle width="260" height="60" as="alternateBounds" />
          </mxGeometry>
        </mxCell>
        <mxCell id="LMaIvzoPrQfNwyaQX1gV-277" value="Count" style="shape=partialRectangle;html=1;whiteSpace=wrap;connectable=0;strokeColor=inherit;overflow=hidden;fillColor=none;top=0;left=0;bottom=0;right=0;pointerEvents=1;fontSize=16;" vertex="1" parent="LMaIvzoPrQfNwyaQX1gV-275">
          <mxGeometry x="260" width="260" height="60" as="geometry">
            <mxRectangle width="260" height="60" as="alternateBounds" />
          </mxGeometry>
        </mxCell>
        <mxCell id="LMaIvzoPrQfNwyaQX1gV-278" value="Количество строк в треке" style="shape=partialRectangle;html=1;whiteSpace=wrap;connectable=0;strokeColor=inherit;overflow=hidden;fillColor=none;top=0;left=0;bottom=0;right=0;pointerEvents=1;fontSize=16;" vertex="1" parent="LMaIvzoPrQfNwyaQX1gV-275">
          <mxGeometry x="520" width="260" height="60" as="geometry">
            <mxRectangle width="260" height="60" as="alternateBounds" />
          </mxGeometry>
        </mxCell>
        <mxCell id="LMaIvzoPrQfNwyaQX1gV-279" value="" style="shape=tableRow;horizontal=0;startSize=0;swimlaneHead=0;swimlaneBody=0;strokeColor=inherit;top=0;left=0;bottom=0;right=0;collapsible=0;dropTarget=0;fillColor=none;points=[[0,0.5],[1,0.5]];portConstraint=eastwest;fontSize=16;" vertex="1" parent="LMaIvzoPrQfNwyaQX1gV-261">
          <mxGeometry y="180" width="780" height="60" as="geometry" />
        </mxCell>
        <mxCell id="LMaIvzoPrQfNwyaQX1gV-280" value="" style="shape=partialRectangle;html=1;whiteSpace=wrap;connectable=0;strokeColor=inherit;overflow=hidden;fillColor=none;top=0;left=0;bottom=0;right=0;pointerEvents=1;fontSize=16;" vertex="1" parent="LMaIvzoPrQfNwyaQX1gV-279">
          <mxGeometry width="260" height="60" as="geometry">
            <mxRectangle width="260" height="60" as="alternateBounds" />
          </mxGeometry>
        </mxCell>
        <mxCell id="LMaIvzoPrQfNwyaQX1gV-281" value="Text" style="shape=partialRectangle;html=1;whiteSpace=wrap;connectable=0;strokeColor=inherit;overflow=hidden;fillColor=none;top=0;left=0;bottom=0;right=0;pointerEvents=1;fontSize=16;" vertex="1" parent="LMaIvzoPrQfNwyaQX1gV-279">
          <mxGeometry x="260" width="260" height="60" as="geometry">
            <mxRectangle width="260" height="60" as="alternateBounds" />
          </mxGeometry>
        </mxCell>
        <mxCell id="LMaIvzoPrQfNwyaQX1gV-282" value="Текст строки" style="shape=partialRectangle;html=1;whiteSpace=wrap;connectable=0;strokeColor=inherit;overflow=hidden;fillColor=none;top=0;left=0;bottom=0;right=0;pointerEvents=1;fontSize=16;" vertex="1" parent="LMaIvzoPrQfNwyaQX1gV-279">
          <mxGeometry x="520" width="260" height="60" as="geometry">
            <mxRectangle width="260" height="60" as="alternateBounds" />
          </mxGeometry>
        </mxCell>
        <mxCell id="LMaIvzoPrQfNwyaQX1gV-270" value="" style="shape=tableRow;horizontal=0;startSize=0;swimlaneHead=0;swimlaneBody=0;strokeColor=inherit;top=0;left=0;bottom=0;right=0;collapsible=0;dropTarget=0;fillColor=none;points=[[0,0.5],[1,0.5]];portConstraint=eastwest;fontSize=16;" vertex="1" parent="LMaIvzoPrQfNwyaQX1gV-261">
          <mxGeometry y="240" width="780" height="60" as="geometry" />
        </mxCell>
        <mxCell id="LMaIvzoPrQfNwyaQX1gV-271" value="" style="shape=partialRectangle;html=1;whiteSpace=wrap;connectable=0;strokeColor=inherit;overflow=hidden;fillColor=none;top=0;left=0;bottom=0;right=0;pointerEvents=1;fontSize=16;" vertex="1" parent="LMaIvzoPrQfNwyaQX1gV-270">
          <mxGeometry width="260" height="60" as="geometry">
            <mxRectangle width="260" height="60" as="alternateBounds" />
          </mxGeometry>
        </mxCell>
        <mxCell id="LMaIvzoPrQfNwyaQX1gV-272" value="Track" style="shape=partialRectangle;html=1;whiteSpace=wrap;connectable=0;strokeColor=inherit;overflow=hidden;fillColor=none;top=0;left=0;bottom=0;right=0;pointerEvents=1;fontSize=16;" vertex="1" parent="LMaIvzoPrQfNwyaQX1gV-270">
          <mxGeometry x="260" width="260" height="60" as="geometry">
            <mxRectangle width="260" height="60" as="alternateBounds" />
          </mxGeometry>
        </mxCell>
        <mxCell id="LMaIvzoPrQfNwyaQX1gV-273" value="Трек, которому принадлежит текст.&lt;span style=&quot;background-color: initial;&quot;&gt;Ссылка на объект Track&lt;/span&gt;" style="shape=partialRectangle;html=1;whiteSpace=wrap;connectable=0;strokeColor=inherit;overflow=hidden;fillColor=none;top=0;left=0;bottom=0;right=0;pointerEvents=1;fontSize=16;" vertex="1" parent="LMaIvzoPrQfNwyaQX1gV-270">
          <mxGeometry x="520" width="260" height="60" as="geometry">
            <mxRectangle width="260" height="60" as="alternateBounds" />
          </mxGeometry>
        </mxCell>
        <mxCell id="LMaIvzoPrQfNwyaQX1gV-274" value="&lt;font style=&quot;font-size: 21px;&quot;&gt;Объект Lyrics&lt;/font&gt;" style="text;html=1;align=center;verticalAlign=middle;resizable=0;points=[];autosize=1;strokeColor=none;fillColor=none;" vertex="1" parent="1">
          <mxGeometry x="30" y="1800" width="150" height="40" as="geometry" />
        </mxCell>
        <mxCell id="LMaIvzoPrQfNwyaQX1gV-72" value="" style="shape=table;startSize=0;container=1;collapsible=0;childLayout=tableLayout;fontSize=16;" vertex="1" parent="1">
          <mxGeometry x="29" y="1290" width="781" height="480" as="geometry" />
        </mxCell>
        <mxCell id="LMaIvzoPrQfNwyaQX1gV-73" value="" style="shape=tableRow;horizontal=0;startSize=0;swimlaneHead=0;swimlaneBody=0;strokeColor=inherit;top=0;left=0;bottom=0;right=0;collapsible=0;dropTarget=0;fillColor=none;points=[[0,0.5],[1,0.5]];portConstraint=eastwest;fontSize=16;" vertex="1" parent="LMaIvzoPrQfNwyaQX1gV-72">
          <mxGeometry width="781" height="61" as="geometry" />
        </mxCell>
        <mxCell id="LMaIvzoPrQfNwyaQX1gV-74" value="Родительская сущность" style="shape=partialRectangle;html=1;whiteSpace=wrap;connectable=0;strokeColor=inherit;overflow=hidden;fillColor=none;top=0;left=0;bottom=0;right=0;pointerEvents=1;fontSize=16;" vertex="1" parent="LMaIvzoPrQfNwyaQX1gV-73">
          <mxGeometry width="257" height="61" as="geometry">
            <mxRectangle width="257" height="61" as="alternateBounds" />
          </mxGeometry>
        </mxCell>
        <mxCell id="LMaIvzoPrQfNwyaQX1gV-75" value="Атрибут" style="shape=partialRectangle;html=1;whiteSpace=wrap;connectable=0;strokeColor=inherit;overflow=hidden;fillColor=none;top=0;left=0;bottom=0;right=0;pointerEvents=1;fontSize=16;" vertex="1" parent="LMaIvzoPrQfNwyaQX1gV-73">
          <mxGeometry x="257" width="256" height="61" as="geometry">
            <mxRectangle width="256" height="61" as="alternateBounds" />
          </mxGeometry>
        </mxCell>
        <mxCell id="LMaIvzoPrQfNwyaQX1gV-76" value="Описание" style="shape=partialRectangle;html=1;whiteSpace=wrap;connectable=0;strokeColor=inherit;overflow=hidden;fillColor=none;top=0;left=0;bottom=0;right=0;pointerEvents=1;fontSize=16;" vertex="1" parent="LMaIvzoPrQfNwyaQX1gV-73">
          <mxGeometry x="513" width="268" height="61" as="geometry">
            <mxRectangle width="268" height="61" as="alternateBounds" />
          </mxGeometry>
        </mxCell>
        <mxCell id="LMaIvzoPrQfNwyaQX1gV-77" value="" style="shape=tableRow;horizontal=0;startSize=0;swimlaneHead=0;swimlaneBody=0;strokeColor=inherit;top=0;left=0;bottom=0;right=0;collapsible=0;dropTarget=0;fillColor=none;points=[[0,0.5],[1,0.5]];portConstraint=eastwest;fontSize=16;" vertex="1" parent="LMaIvzoPrQfNwyaQX1gV-72">
          <mxGeometry y="61" width="781" height="59" as="geometry" />
        </mxCell>
        <mxCell id="LMaIvzoPrQfNwyaQX1gV-78" value="Track" style="shape=partialRectangle;html=1;whiteSpace=wrap;connectable=0;strokeColor=inherit;overflow=hidden;fillColor=none;top=0;left=0;bottom=0;right=0;pointerEvents=1;fontSize=16;" vertex="1" parent="LMaIvzoPrQfNwyaQX1gV-77">
          <mxGeometry width="257" height="59" as="geometry">
            <mxRectangle width="257" height="59" as="alternateBounds" />
          </mxGeometry>
        </mxCell>
        <mxCell id="LMaIvzoPrQfNwyaQX1gV-79" value="---------" style="shape=partialRectangle;html=1;whiteSpace=wrap;connectable=0;strokeColor=inherit;overflow=hidden;fillColor=none;top=0;left=0;bottom=0;right=0;pointerEvents=1;fontSize=16;" vertex="1" parent="LMaIvzoPrQfNwyaQX1gV-77">
          <mxGeometry x="257" width="256" height="59" as="geometry">
            <mxRectangle width="256" height="59" as="alternateBounds" />
          </mxGeometry>
        </mxCell>
        <mxCell id="LMaIvzoPrQfNwyaQX1gV-80" value="&lt;span style=&quot;text-wrap: nowrap;&quot;&gt;&lt;font style=&quot;font-size: 16px;&quot;&gt;Воспроизводимый трек&lt;/font&gt;&lt;/span&gt;" style="shape=partialRectangle;html=1;whiteSpace=wrap;connectable=0;strokeColor=inherit;overflow=hidden;fillColor=none;top=0;left=0;bottom=0;right=0;pointerEvents=1;fontSize=16;" vertex="1" parent="LMaIvzoPrQfNwyaQX1gV-77">
          <mxGeometry x="513" width="268" height="59" as="geometry">
            <mxRectangle width="268" height="59" as="alternateBounds" />
          </mxGeometry>
        </mxCell>
        <mxCell id="LMaIvzoPrQfNwyaQX1gV-81" value="" style="shape=tableRow;horizontal=0;startSize=0;swimlaneHead=0;swimlaneBody=0;strokeColor=inherit;top=0;left=0;bottom=0;right=0;collapsible=0;dropTarget=0;fillColor=none;points=[[0,0.5],[1,0.5]];portConstraint=eastwest;fontSize=16;" vertex="1" parent="LMaIvzoPrQfNwyaQX1gV-72">
          <mxGeometry y="120" width="781" height="60" as="geometry" />
        </mxCell>
        <mxCell id="LMaIvzoPrQfNwyaQX1gV-82" value="" style="shape=partialRectangle;html=1;whiteSpace=wrap;connectable=0;strokeColor=inherit;overflow=hidden;fillColor=none;top=0;left=0;bottom=0;right=0;pointerEvents=1;fontSize=16;" vertex="1" parent="LMaIvzoPrQfNwyaQX1gV-81">
          <mxGeometry width="257" height="60" as="geometry">
            <mxRectangle width="257" height="60" as="alternateBounds" />
          </mxGeometry>
        </mxCell>
        <mxCell id="LMaIvzoPrQfNwyaQX1gV-83" value="TrackName" style="shape=partialRectangle;html=1;whiteSpace=wrap;connectable=0;strokeColor=inherit;overflow=hidden;fillColor=none;top=0;left=0;bottom=0;right=0;pointerEvents=1;fontSize=16;" vertex="1" parent="LMaIvzoPrQfNwyaQX1gV-81">
          <mxGeometry x="257" width="256" height="60" as="geometry">
            <mxRectangle width="256" height="60" as="alternateBounds" />
          </mxGeometry>
        </mxCell>
        <mxCell id="LMaIvzoPrQfNwyaQX1gV-84" value="Название трека" style="shape=partialRectangle;html=1;whiteSpace=wrap;connectable=0;strokeColor=inherit;overflow=hidden;fillColor=none;top=0;left=0;bottom=0;right=0;pointerEvents=1;fontSize=16;" vertex="1" parent="LMaIvzoPrQfNwyaQX1gV-81">
          <mxGeometry x="513" width="268" height="60" as="geometry">
            <mxRectangle width="268" height="60" as="alternateBounds" />
          </mxGeometry>
        </mxCell>
        <mxCell id="LMaIvzoPrQfNwyaQX1gV-85" value="" style="shape=tableRow;horizontal=0;startSize=0;swimlaneHead=0;swimlaneBody=0;strokeColor=inherit;top=0;left=0;bottom=0;right=0;collapsible=0;dropTarget=0;fillColor=none;points=[[0,0.5],[1,0.5]];portConstraint=eastwest;fontSize=16;" vertex="1" parent="LMaIvzoPrQfNwyaQX1gV-72">
          <mxGeometry y="180" width="781" height="60" as="geometry" />
        </mxCell>
        <mxCell id="LMaIvzoPrQfNwyaQX1gV-86" value="" style="shape=partialRectangle;html=1;whiteSpace=wrap;connectable=0;strokeColor=inherit;overflow=hidden;fillColor=none;top=0;left=0;bottom=0;right=0;pointerEvents=1;fontSize=16;" vertex="1" parent="LMaIvzoPrQfNwyaQX1gV-85">
          <mxGeometry width="257" height="60" as="geometry">
            <mxRectangle width="257" height="60" as="alternateBounds" />
          </mxGeometry>
        </mxCell>
        <mxCell id="LMaIvzoPrQfNwyaQX1gV-87" value="Artist" style="shape=partialRectangle;html=1;whiteSpace=wrap;connectable=0;strokeColor=inherit;overflow=hidden;fillColor=none;top=0;left=0;bottom=0;right=0;pointerEvents=1;fontSize=16;" vertex="1" parent="LMaIvzoPrQfNwyaQX1gV-85">
          <mxGeometry x="257" width="256" height="60" as="geometry">
            <mxRectangle width="256" height="60" as="alternateBounds" />
          </mxGeometry>
        </mxCell>
        <mxCell id="LMaIvzoPrQfNwyaQX1gV-88" value="Исполнители, которым принадлежит трек. Ссылка на объект Artist" style="shape=partialRectangle;html=1;whiteSpace=wrap;connectable=0;strokeColor=inherit;overflow=hidden;fillColor=none;top=0;left=0;bottom=0;right=0;pointerEvents=1;fontSize=16;" vertex="1" parent="LMaIvzoPrQfNwyaQX1gV-85">
          <mxGeometry x="513" width="268" height="60" as="geometry">
            <mxRectangle width="268" height="60" as="alternateBounds" />
          </mxGeometry>
        </mxCell>
        <mxCell id="LMaIvzoPrQfNwyaQX1gV-102" value="" style="shape=tableRow;horizontal=0;startSize=0;swimlaneHead=0;swimlaneBody=0;strokeColor=inherit;top=0;left=0;bottom=0;right=0;collapsible=0;dropTarget=0;fillColor=none;points=[[0,0.5],[1,0.5]];portConstraint=eastwest;fontSize=16;" vertex="1" parent="LMaIvzoPrQfNwyaQX1gV-72">
          <mxGeometry y="240" width="781" height="60" as="geometry" />
        </mxCell>
        <mxCell id="LMaIvzoPrQfNwyaQX1gV-103" value="" style="shape=partialRectangle;html=1;whiteSpace=wrap;connectable=0;strokeColor=inherit;overflow=hidden;fillColor=none;top=0;left=0;bottom=0;right=0;pointerEvents=1;fontSize=16;" vertex="1" parent="LMaIvzoPrQfNwyaQX1gV-102">
          <mxGeometry width="257" height="60" as="geometry">
            <mxRectangle width="257" height="60" as="alternateBounds" />
          </mxGeometry>
        </mxCell>
        <mxCell id="LMaIvzoPrQfNwyaQX1gV-104" value="Album" style="shape=partialRectangle;html=1;whiteSpace=wrap;connectable=0;strokeColor=inherit;overflow=hidden;fillColor=none;top=0;left=0;bottom=0;right=0;pointerEvents=1;fontSize=16;" vertex="1" parent="LMaIvzoPrQfNwyaQX1gV-102">
          <mxGeometry x="257" width="256" height="60" as="geometry">
            <mxRectangle width="256" height="60" as="alternateBounds" />
          </mxGeometry>
        </mxCell>
        <mxCell id="LMaIvzoPrQfNwyaQX1gV-105" value="Название Альбома, которому принадлежит трек. Ссылка на объект Album" style="shape=partialRectangle;html=1;whiteSpace=wrap;connectable=0;strokeColor=inherit;overflow=hidden;fillColor=none;top=0;left=0;bottom=0;right=0;pointerEvents=1;fontSize=16;" vertex="1" parent="LMaIvzoPrQfNwyaQX1gV-102">
          <mxGeometry x="513" width="268" height="60" as="geometry">
            <mxRectangle width="268" height="60" as="alternateBounds" />
          </mxGeometry>
        </mxCell>
        <mxCell id="LMaIvzoPrQfNwyaQX1gV-89" value="" style="shape=tableRow;horizontal=0;startSize=0;swimlaneHead=0;swimlaneBody=0;strokeColor=inherit;top=0;left=0;bottom=0;right=0;collapsible=0;dropTarget=0;fillColor=none;points=[[0,0.5],[1,0.5]];portConstraint=eastwest;fontSize=16;" vertex="1" parent="LMaIvzoPrQfNwyaQX1gV-72">
          <mxGeometry y="300" width="781" height="60" as="geometry" />
        </mxCell>
        <mxCell id="LMaIvzoPrQfNwyaQX1gV-90" value="" style="shape=partialRectangle;html=1;whiteSpace=wrap;connectable=0;strokeColor=inherit;overflow=hidden;fillColor=none;top=0;left=0;bottom=0;right=0;pointerEvents=1;fontSize=16;" vertex="1" parent="LMaIvzoPrQfNwyaQX1gV-89">
          <mxGeometry width="257" height="60" as="geometry">
            <mxRectangle width="257" height="60" as="alternateBounds" />
          </mxGeometry>
        </mxCell>
        <mxCell id="LMaIvzoPrQfNwyaQX1gV-91" value="Duration" style="shape=partialRectangle;html=1;whiteSpace=wrap;connectable=0;strokeColor=inherit;overflow=hidden;fillColor=none;top=0;left=0;bottom=0;right=0;pointerEvents=1;fontSize=16;" vertex="1" parent="LMaIvzoPrQfNwyaQX1gV-89">
          <mxGeometry x="257" width="256" height="60" as="geometry">
            <mxRectangle width="256" height="60" as="alternateBounds" />
          </mxGeometry>
        </mxCell>
        <mxCell id="LMaIvzoPrQfNwyaQX1gV-92" value="Длительность" style="shape=partialRectangle;html=1;whiteSpace=wrap;connectable=0;strokeColor=inherit;overflow=hidden;fillColor=none;top=0;left=0;bottom=0;right=0;pointerEvents=1;fontSize=16;" vertex="1" parent="LMaIvzoPrQfNwyaQX1gV-89">
          <mxGeometry x="513" width="268" height="60" as="geometry">
            <mxRectangle width="268" height="60" as="alternateBounds" />
          </mxGeometry>
        </mxCell>
        <mxCell id="LMaIvzoPrQfNwyaQX1gV-106" value="" style="shape=tableRow;horizontal=0;startSize=0;swimlaneHead=0;swimlaneBody=0;strokeColor=inherit;top=0;left=0;bottom=0;right=0;collapsible=0;dropTarget=0;fillColor=none;points=[[0,0.5],[1,0.5]];portConstraint=eastwest;fontSize=16;" vertex="1" parent="LMaIvzoPrQfNwyaQX1gV-72">
          <mxGeometry y="360" width="781" height="60" as="geometry" />
        </mxCell>
        <mxCell id="LMaIvzoPrQfNwyaQX1gV-107" value="" style="shape=partialRectangle;html=1;whiteSpace=wrap;connectable=0;strokeColor=inherit;overflow=hidden;fillColor=none;top=0;left=0;bottom=0;right=0;pointerEvents=1;fontSize=16;" vertex="1" parent="LMaIvzoPrQfNwyaQX1gV-106">
          <mxGeometry width="257" height="60" as="geometry">
            <mxRectangle width="257" height="60" as="alternateBounds" />
          </mxGeometry>
        </mxCell>
        <mxCell id="LMaIvzoPrQfNwyaQX1gV-108" value="Lyrics_status" style="shape=partialRectangle;html=1;whiteSpace=wrap;connectable=0;strokeColor=inherit;overflow=hidden;fillColor=none;top=0;left=0;bottom=0;right=0;pointerEvents=1;fontSize=16;" vertex="1" parent="LMaIvzoPrQfNwyaQX1gV-106">
          <mxGeometry x="257" width="256" height="60" as="geometry">
            <mxRectangle width="256" height="60" as="alternateBounds" />
          </mxGeometry>
        </mxCell>
        <mxCell id="LMaIvzoPrQfNwyaQX1gV-109" value="Информация о наличии/отсутствии текса песни&amp;nbsp;" style="shape=partialRectangle;html=1;whiteSpace=wrap;connectable=0;strokeColor=inherit;overflow=hidden;fillColor=none;top=0;left=0;bottom=0;right=0;pointerEvents=1;fontSize=16;" vertex="1" parent="LMaIvzoPrQfNwyaQX1gV-106">
          <mxGeometry x="513" width="268" height="60" as="geometry">
            <mxRectangle width="268" height="60" as="alternateBounds" />
          </mxGeometry>
        </mxCell>
        <mxCell id="LMaIvzoPrQfNwyaQX1gV-93" value="" style="shape=tableRow;horizontal=0;startSize=0;swimlaneHead=0;swimlaneBody=0;strokeColor=inherit;top=0;left=0;bottom=0;right=0;collapsible=0;dropTarget=0;fillColor=none;points=[[0,0.5],[1,0.5]];portConstraint=eastwest;fontSize=16;" vertex="1" parent="LMaIvzoPrQfNwyaQX1gV-72">
          <mxGeometry y="420" width="781" height="60" as="geometry" />
        </mxCell>
        <mxCell id="LMaIvzoPrQfNwyaQX1gV-94" value="" style="shape=partialRectangle;html=1;whiteSpace=wrap;connectable=0;strokeColor=inherit;overflow=hidden;fillColor=none;top=0;left=0;bottom=0;right=0;pointerEvents=1;fontSize=16;" vertex="1" parent="LMaIvzoPrQfNwyaQX1gV-93">
          <mxGeometry width="257" height="60" as="geometry">
            <mxRectangle width="257" height="60" as="alternateBounds" />
          </mxGeometry>
        </mxCell>
        <mxCell id="LMaIvzoPrQfNwyaQX1gV-95" value="Lyrics" style="shape=partialRectangle;html=1;whiteSpace=wrap;connectable=0;strokeColor=inherit;overflow=hidden;fillColor=none;top=0;left=0;bottom=0;right=0;pointerEvents=1;fontSize=16;" vertex="1" parent="LMaIvzoPrQfNwyaQX1gV-93">
          <mxGeometry x="257" width="256" height="60" as="geometry">
            <mxRectangle width="256" height="60" as="alternateBounds" />
          </mxGeometry>
        </mxCell>
        <mxCell id="LMaIvzoPrQfNwyaQX1gV-96" value="Текст песни" style="shape=partialRectangle;html=1;whiteSpace=wrap;connectable=0;strokeColor=inherit;overflow=hidden;fillColor=none;top=0;left=0;bottom=0;right=0;pointerEvents=1;fontSize=16;" vertex="1" parent="LMaIvzoPrQfNwyaQX1gV-93">
          <mxGeometry x="513" width="268" height="60" as="geometry">
            <mxRectangle width="268" height="60" as="alternateBounds" />
          </mxGeometry>
        </mxCell>
        <mxCell id="LMaIvzoPrQfNwyaQX1gV-97" value="&lt;font style=&quot;font-size: 21px;&quot;&gt;Объект Track&lt;/font&gt;" style="text;html=1;align=center;verticalAlign=middle;resizable=0;points=[];autosize=1;strokeColor=none;fillColor=none;" vertex="1" parent="1">
          <mxGeometry x="24" y="1260" width="150" height="40" as="geometry" />
        </mxCell>
        <mxCell id="LMaIvzoPrQfNwyaQX1gV-283" value="&lt;font style=&quot;font-size: 21px;&quot;&gt;Объект Report&lt;/font&gt;" style="text;html=1;align=center;verticalAlign=middle;resizable=0;points=[];autosize=1;strokeColor=none;fillColor=none;" vertex="1" parent="1">
          <mxGeometry x="30" y="2160" width="160" height="40" as="geometry" />
        </mxCell>
        <mxCell id="LMaIvzoPrQfNwyaQX1gV-284" value="" style="shape=table;startSize=0;container=1;collapsible=0;childLayout=tableLayout;fontSize=16;" vertex="1" parent="1">
          <mxGeometry x="35" y="2200" width="780" height="300" as="geometry" />
        </mxCell>
        <mxCell id="LMaIvzoPrQfNwyaQX1gV-285" value="" style="shape=tableRow;horizontal=0;startSize=0;swimlaneHead=0;swimlaneBody=0;strokeColor=inherit;top=0;left=0;bottom=0;right=0;collapsible=0;dropTarget=0;fillColor=none;points=[[0,0.5],[1,0.5]];portConstraint=eastwest;fontSize=16;" vertex="1" parent="LMaIvzoPrQfNwyaQX1gV-284">
          <mxGeometry width="780" height="60" as="geometry" />
        </mxCell>
        <mxCell id="LMaIvzoPrQfNwyaQX1gV-286" value="Родительская сущность" style="shape=partialRectangle;html=1;whiteSpace=wrap;connectable=0;strokeColor=inherit;overflow=hidden;fillColor=none;top=0;left=0;bottom=0;right=0;pointerEvents=1;fontSize=16;" vertex="1" parent="LMaIvzoPrQfNwyaQX1gV-285">
          <mxGeometry width="260" height="60" as="geometry">
            <mxRectangle width="260" height="60" as="alternateBounds" />
          </mxGeometry>
        </mxCell>
        <mxCell id="LMaIvzoPrQfNwyaQX1gV-287" value="Атрибут" style="shape=partialRectangle;html=1;whiteSpace=wrap;connectable=0;strokeColor=inherit;overflow=hidden;fillColor=none;top=0;left=0;bottom=0;right=0;pointerEvents=1;fontSize=16;" vertex="1" parent="LMaIvzoPrQfNwyaQX1gV-285">
          <mxGeometry x="260" width="260" height="60" as="geometry">
            <mxRectangle width="260" height="60" as="alternateBounds" />
          </mxGeometry>
        </mxCell>
        <mxCell id="LMaIvzoPrQfNwyaQX1gV-288" value="Описание" style="shape=partialRectangle;html=1;whiteSpace=wrap;connectable=0;strokeColor=inherit;overflow=hidden;fillColor=none;top=0;left=0;bottom=0;right=0;pointerEvents=1;fontSize=16;" vertex="1" parent="LMaIvzoPrQfNwyaQX1gV-285">
          <mxGeometry x="520" width="260" height="60" as="geometry">
            <mxRectangle width="260" height="60" as="alternateBounds" />
          </mxGeometry>
        </mxCell>
        <mxCell id="LMaIvzoPrQfNwyaQX1gV-289" value="" style="shape=tableRow;horizontal=0;startSize=0;swimlaneHead=0;swimlaneBody=0;strokeColor=inherit;top=0;left=0;bottom=0;right=0;collapsible=0;dropTarget=0;fillColor=none;points=[[0,0.5],[1,0.5]];portConstraint=eastwest;fontSize=16;" vertex="1" parent="LMaIvzoPrQfNwyaQX1gV-284">
          <mxGeometry y="60" width="780" height="60" as="geometry" />
        </mxCell>
        <mxCell id="LMaIvzoPrQfNwyaQX1gV-290" value="&lt;span style=&quot;text-wrap: nowrap;&quot;&gt;Report&lt;/span&gt;" style="shape=partialRectangle;html=1;whiteSpace=wrap;connectable=0;strokeColor=inherit;overflow=hidden;fillColor=none;top=0;left=0;bottom=0;right=0;pointerEvents=1;fontSize=16;" vertex="1" parent="LMaIvzoPrQfNwyaQX1gV-289">
          <mxGeometry width="260" height="60" as="geometry">
            <mxRectangle width="260" height="60" as="alternateBounds" />
          </mxGeometry>
        </mxCell>
        <mxCell id="LMaIvzoPrQfNwyaQX1gV-291" value="---------" style="shape=partialRectangle;html=1;whiteSpace=wrap;connectable=0;strokeColor=inherit;overflow=hidden;fillColor=none;top=0;left=0;bottom=0;right=0;pointerEvents=1;fontSize=16;" vertex="1" parent="LMaIvzoPrQfNwyaQX1gV-289">
          <mxGeometry x="260" width="260" height="60" as="geometry">
            <mxRectangle width="260" height="60" as="alternateBounds" />
          </mxGeometry>
        </mxCell>
        <mxCell id="LMaIvzoPrQfNwyaQX1gV-292" value="Сообщение об ошибке" style="shape=partialRectangle;html=1;whiteSpace=wrap;connectable=0;strokeColor=inherit;overflow=hidden;fillColor=none;top=0;left=0;bottom=0;right=0;pointerEvents=1;fontSize=16;" vertex="1" parent="LMaIvzoPrQfNwyaQX1gV-289">
          <mxGeometry x="520" width="260" height="60" as="geometry">
            <mxRectangle width="260" height="60" as="alternateBounds" />
          </mxGeometry>
        </mxCell>
        <mxCell id="LMaIvzoPrQfNwyaQX1gV-293" value="" style="shape=tableRow;horizontal=0;startSize=0;swimlaneHead=0;swimlaneBody=0;strokeColor=inherit;top=0;left=0;bottom=0;right=0;collapsible=0;dropTarget=0;fillColor=none;points=[[0,0.5],[1,0.5]];portConstraint=eastwest;fontSize=16;" vertex="1" parent="LMaIvzoPrQfNwyaQX1gV-284">
          <mxGeometry y="120" width="780" height="60" as="geometry" />
        </mxCell>
        <mxCell id="LMaIvzoPrQfNwyaQX1gV-294" value="" style="shape=partialRectangle;html=1;whiteSpace=wrap;connectable=0;strokeColor=inherit;overflow=hidden;fillColor=none;top=0;left=0;bottom=0;right=0;pointerEvents=1;fontSize=16;" vertex="1" parent="LMaIvzoPrQfNwyaQX1gV-293">
          <mxGeometry width="260" height="60" as="geometry">
            <mxRectangle width="260" height="60" as="alternateBounds" />
          </mxGeometry>
        </mxCell>
        <mxCell id="LMaIvzoPrQfNwyaQX1gV-295" value="User" style="shape=partialRectangle;html=1;whiteSpace=wrap;connectable=0;strokeColor=inherit;overflow=hidden;fillColor=none;top=0;left=0;bottom=0;right=0;pointerEvents=1;fontSize=16;" vertex="1" parent="LMaIvzoPrQfNwyaQX1gV-293">
          <mxGeometry x="260" width="260" height="60" as="geometry">
            <mxRectangle width="260" height="60" as="alternateBounds" />
          </mxGeometry>
        </mxCell>
        <mxCell id="LMaIvzoPrQfNwyaQX1gV-296" value="&lt;div&gt;Пользователь, который отправил репорт.&lt;span style=&quot;background-color: initial;&quot;&gt;Ссылка на объект User&lt;/span&gt;&lt;/div&gt;" style="shape=partialRectangle;html=1;whiteSpace=wrap;connectable=0;strokeColor=inherit;overflow=hidden;fillColor=none;top=0;left=0;bottom=0;right=0;pointerEvents=1;fontSize=16;" vertex="1" parent="LMaIvzoPrQfNwyaQX1gV-293">
          <mxGeometry x="520" width="260" height="60" as="geometry">
            <mxRectangle width="260" height="60" as="alternateBounds" />
          </mxGeometry>
        </mxCell>
        <mxCell id="LMaIvzoPrQfNwyaQX1gV-297" value="" style="shape=tableRow;horizontal=0;startSize=0;swimlaneHead=0;swimlaneBody=0;strokeColor=inherit;top=0;left=0;bottom=0;right=0;collapsible=0;dropTarget=0;fillColor=none;points=[[0,0.5],[1,0.5]];portConstraint=eastwest;fontSize=16;" vertex="1" parent="LMaIvzoPrQfNwyaQX1gV-284">
          <mxGeometry y="180" width="780" height="60" as="geometry" />
        </mxCell>
        <mxCell id="LMaIvzoPrQfNwyaQX1gV-298" value="" style="shape=partialRectangle;html=1;whiteSpace=wrap;connectable=0;strokeColor=inherit;overflow=hidden;fillColor=none;top=0;left=0;bottom=0;right=0;pointerEvents=1;fontSize=16;" vertex="1" parent="LMaIvzoPrQfNwyaQX1gV-297">
          <mxGeometry width="260" height="60" as="geometry">
            <mxRectangle width="260" height="60" as="alternateBounds" />
          </mxGeometry>
        </mxCell>
        <mxCell id="LMaIvzoPrQfNwyaQX1gV-299" value="Message" style="shape=partialRectangle;html=1;whiteSpace=wrap;connectable=0;strokeColor=inherit;overflow=hidden;fillColor=none;top=0;left=0;bottom=0;right=0;pointerEvents=1;fontSize=16;" vertex="1" parent="LMaIvzoPrQfNwyaQX1gV-297">
          <mxGeometry x="260" width="260" height="60" as="geometry">
            <mxRectangle width="260" height="60" as="alternateBounds" />
          </mxGeometry>
        </mxCell>
        <mxCell id="LMaIvzoPrQfNwyaQX1gV-300" value="Текст репорта" style="shape=partialRectangle;html=1;whiteSpace=wrap;connectable=0;strokeColor=inherit;overflow=hidden;fillColor=none;top=0;left=0;bottom=0;right=0;pointerEvents=1;fontSize=16;" vertex="1" parent="LMaIvzoPrQfNwyaQX1gV-297">
          <mxGeometry x="520" width="260" height="60" as="geometry">
            <mxRectangle width="260" height="60" as="alternateBounds" />
          </mxGeometry>
        </mxCell>
        <mxCell id="LMaIvzoPrQfNwyaQX1gV-301" value="" style="shape=tableRow;horizontal=0;startSize=0;swimlaneHead=0;swimlaneBody=0;strokeColor=inherit;top=0;left=0;bottom=0;right=0;collapsible=0;dropTarget=0;fillColor=none;points=[[0,0.5],[1,0.5]];portConstraint=eastwest;fontSize=16;" vertex="1" parent="LMaIvzoPrQfNwyaQX1gV-284">
          <mxGeometry y="240" width="780" height="60" as="geometry" />
        </mxCell>
        <mxCell id="LMaIvzoPrQfNwyaQX1gV-302" value="" style="shape=partialRectangle;html=1;whiteSpace=wrap;connectable=0;strokeColor=inherit;overflow=hidden;fillColor=none;top=0;left=0;bottom=0;right=0;pointerEvents=1;fontSize=16;" vertex="1" parent="LMaIvzoPrQfNwyaQX1gV-301">
          <mxGeometry width="260" height="60" as="geometry">
            <mxRectangle width="260" height="60" as="alternateBounds" />
          </mxGeometry>
        </mxCell>
        <mxCell id="LMaIvzoPrQfNwyaQX1gV-303" value="Time" style="shape=partialRectangle;html=1;whiteSpace=wrap;connectable=0;strokeColor=inherit;overflow=hidden;fillColor=none;top=0;left=0;bottom=0;right=0;pointerEvents=1;fontSize=16;" vertex="1" parent="LMaIvzoPrQfNwyaQX1gV-301">
          <mxGeometry x="260" width="260" height="60" as="geometry">
            <mxRectangle width="260" height="60" as="alternateBounds" />
          </mxGeometry>
        </mxCell>
        <mxCell id="LMaIvzoPrQfNwyaQX1gV-304" value="Дата, время отправки" style="shape=partialRectangle;html=1;whiteSpace=wrap;connectable=0;strokeColor=inherit;overflow=hidden;fillColor=none;top=0;left=0;bottom=0;right=0;pointerEvents=1;fontSize=16;" vertex="1" parent="LMaIvzoPrQfNwyaQX1gV-301">
          <mxGeometry x="520" width="260" height="60" as="geometry">
            <mxRectangle width="260" height="60" as="alternateBounds" />
          </mxGeometry>
        </mxCell>
      </root>
    </mxGraphModel>
  </diagram>
</mxfile>
